<svg width="198" height="35" viewBox="0 0 198 35" fill="none" xmlns="http://www.w3.org/2000/svg">
<path d="M0 28.4746L4.69224 0H14.2285C16.0686 0 17.5499 0.324417 18.6724 0.973251C19.7948 1.62209 20.5677 2.50728 20.9909 3.62884C21.4233 4.7504 21.5153 6.02489 21.2669 7.45233C21.0737 8.63877 20.7103 9.65373 20.1766 10.4972C19.643 11.3314 18.9944 12.0127 18.2307 12.541C17.4763 13.0601 16.6621 13.4355 15.788 13.6672L15.7466 13.8897C16.6483 13.9546 17.4809 14.279 18.2445 14.8629C19.0082 15.4376 19.5786 16.244 19.9558 17.2822C20.3423 18.3203 20.4205 19.5624 20.1904 21.0083C19.9512 22.445 19.4176 23.7288 18.5896 24.8596C17.7707 25.9812 16.6483 26.8664 15.2222 27.5152C13.8053 28.1548 12.0848 28.4746 10.0607 28.4746H0ZM2.96715 26.1388H10.4471C12.6276 26.1388 14.3205 25.6521 15.5258 24.6789C16.7311 23.7056 17.4625 22.4821 17.7201 21.0083C17.8949 19.9239 17.7937 18.9413 17.4165 18.0608C17.0393 17.1709 16.4228 16.4665 15.5672 15.9474C14.7116 15.4284 13.6489 15.1688 12.3792 15.1688H4.78884L2.96715 26.1388ZM5.17527 12.8608H12.3654C13.4787 12.8608 14.4907 12.6291 15.4016 12.1657C16.3124 11.7022 17.0669 11.0626 17.6649 10.247C18.2629 9.43128 18.6448 8.49973 18.8104 7.45233C19.068 5.94147 18.7874 4.71332 17.9685 3.76788C17.1589 2.81316 15.7834 2.3358 13.8421 2.3358H6.88655L5.17527 12.8608Z" fill="black"/>
<path d="M33.1666 28.9195C31.1885 28.9195 29.5554 28.456 28.2673 27.5291C26.9792 26.593 26.0776 25.2999 25.5624 23.65C25.0471 21.9909 24.9689 20.0814 25.3278 17.9217C25.6866 15.7713 26.395 13.8619 27.4531 12.1935C28.5111 10.5158 29.8176 9.20418 31.3725 8.25874C32.9273 7.30403 34.6156 6.82667 36.4373 6.82667C37.5874 6.82667 38.6638 7.03986 39.6667 7.46623C40.6695 7.88334 41.5206 8.52754 42.2198 9.39883C42.9282 10.2609 43.4205 11.35 43.6965 12.6662C43.9725 13.9731 43.9633 15.5211 43.6689 17.31L43.4757 18.5335H26.9148L27.2599 16.3506H41.3228C41.5528 14.9788 41.4884 13.746 41.1296 12.6523C40.7707 11.5585 40.1589 10.6919 39.2941 10.0523C38.4384 9.40347 37.3758 9.07905 36.1061 9.07905C34.8088 9.07905 33.5806 9.44518 32.4213 10.1774C31.2713 10.9097 30.296 11.8644 29.4956 13.0416C28.7043 14.2095 28.1937 15.4562 27.9637 16.7816L27.6877 18.4223C27.3933 20.2297 27.4301 21.7452 27.7981 22.9687C28.1661 24.183 28.8331 25.1006 29.7992 25.7217C30.7652 26.3427 32.0027 26.6532 33.5116 26.6532C34.5236 26.6532 35.4391 26.4956 36.2579 26.1805C37.0768 25.8653 37.7898 25.4436 38.397 24.9153C39.0043 24.3776 39.4919 23.7891 39.8599 23.1495L42.0542 23.9142C41.585 24.8133 40.9226 25.6429 40.0669 26.4029C39.2205 27.163 38.213 27.7748 37.0446 28.2382C35.8853 28.6924 34.5926 28.9195 33.1666 28.9195Z" fill="black"/>
<path d="M53.0982 28.9612C51.8194 28.9612 50.6923 28.7109 49.7171 28.2104C48.7418 27.7006 48.015 26.9684 47.5365 26.0136C47.0673 25.0497 46.9385 23.8818 47.1501 22.5099C47.3341 21.4533 47.6837 20.5634 48.199 19.8404C48.7234 19.1175 49.3858 18.5242 50.1863 18.0608C50.9867 17.5881 51.9068 17.2173 52.9464 16.9485C53.9861 16.6797 55.1177 16.4758 56.3414 16.3367C57.5374 16.1884 58.5587 16.0587 59.4051 15.9474C60.2516 15.8362 60.9094 15.6601 61.3786 15.4191C61.8479 15.1781 62.1285 14.7888 62.2205 14.2512L62.3033 13.7507C62.5425 12.2954 62.3217 11.1507 61.6409 10.3165C60.96 9.47299 59.8192 9.05124 58.2183 9.05124C56.691 9.05124 55.3661 9.3942 54.2437 10.0801C53.1304 10.7568 52.3024 11.5493 51.7596 12.4576L49.579 11.6095C50.2415 10.4416 51.0557 9.51006 52.0218 8.81488C52.9878 8.11043 54.0229 7.60527 55.1269 7.29939C56.231 6.98424 57.3212 6.82667 58.3977 6.82667C59.2073 6.82667 60.0308 6.93326 60.868 7.14645C61.7053 7.35964 62.4551 7.7304 63.1175 8.25874C63.7892 8.77781 64.2814 9.50543 64.5942 10.4416C64.9162 11.3685 64.9622 12.5457 64.7322 13.9731L62.3309 28.4746H59.8744L60.4402 25.096H60.2884C59.902 25.7263 59.3683 26.3381 58.6875 26.9313C58.0159 27.5245 57.2108 28.0111 56.2724 28.3912C55.3339 28.7712 54.2759 28.9612 53.0982 28.9612ZM53.7193 26.6949C55.0257 26.6949 56.208 26.4029 57.266 25.819C58.3333 25.235 59.2073 24.4611 59.8882 23.4971C60.5782 22.5238 61.0198 21.4533 61.213 20.2854L61.7237 17.1988C61.5212 17.3749 61.19 17.5324 60.73 17.6715C60.2792 17.8105 59.7686 17.9356 59.1981 18.0469C58.6369 18.1488 58.0711 18.2369 57.5006 18.311C56.9394 18.3852 56.4426 18.4501 56.0102 18.5057C54.7865 18.654 53.7193 18.8857 52.8084 19.2009C51.9068 19.516 51.1845 19.9517 50.6417 20.5078C50.0989 21.0547 49.7584 21.7591 49.6204 22.6212C49.4088 23.9188 49.6894 24.9245 50.4623 25.6382C51.2443 26.3427 52.33 26.6949 53.7193 26.6949Z" fill="black"/>
<path d="M83.6737 20.3132L85.868 7.11864H88.3245L84.7915 28.4746H82.335L82.9146 24.9292H82.7352C82.0728 26.0229 81.1343 26.9359 79.9199 27.6682C78.7146 28.3912 77.3346 28.7526 75.7797 28.7526C74.4272 28.7526 73.2726 28.456 72.3157 27.8628C71.368 27.2603 70.6918 26.3798 70.287 25.2211C69.8822 24.0625 69.8178 22.6397 70.0938 20.9527L72.3985 7.11864H74.855L72.5917 20.7998C72.3249 22.4682 72.5917 23.8122 73.3922 24.8318C74.2018 25.8422 75.3703 26.3473 76.8975 26.3473C77.8544 26.3473 78.8112 26.1156 79.7681 25.6521C80.7341 25.1887 81.5714 24.512 82.2798 23.6222C82.9974 22.7231 83.4621 21.6201 83.6737 20.3132Z" fill="black"/>
<path d="M103.178 7.11864L102.833 9.2737H92.7028L93.0616 7.11864H103.178ZM97.05 2.00212H99.5203L96.0702 22.8992C95.923 23.7891 95.9598 24.4889 96.1806 24.9987C96.4014 25.4992 96.7418 25.8561 97.2018 26.0693C97.6618 26.2732 98.1679 26.3751 98.7199 26.3751C99.0419 26.3751 99.3179 26.3566 99.5479 26.3195C99.7872 26.2732 99.9988 26.2268 100.183 26.1805L100.362 28.419C100.095 28.5116 99.7779 28.5951 99.4099 28.6692C99.0419 28.7526 98.6003 28.7944 98.0851 28.7944C97.1834 28.7944 96.3508 28.5951 95.5871 28.1965C94.8235 27.7979 94.2439 27.2047 93.8483 26.4168C93.4526 25.629 93.3468 24.6511 93.5308 23.4832L97.05 2.00212Z" fill="black"/>
<path d="M63.724 35C63.2364 35 61.7357 35 61.3174 35C60.6696 35 2.96715 35 2.96715 35L0.791299 32.6225C3.02316 32.6225 63.1999 32.5771 63.8519 32.5771C64.9128 32.5771 95.6709 32.5771 106.77 32.5771C109.22 32.5771 111.502 31.2871 112.658 29.1271L113.038 28.2938L108.843 6.82667H111.396L114.708 24.957H114.887L124.175 6.82667H126.949L114.41 30.5819C114.076 31.2148 113.608 31.9063 113.13 32.4387C111.575 34.1696 109.404 35 107.077 35H66.7325C66.7325 35 66.7325 35 66.7325 35C66.7325 35 64.4996 35 63.724 35Z" fill="black"/>
<path d="M126.949 28.4746L131.641 0H134.222L132.069 13.0555H148.106L150.259 0H152.839L148.147 28.4746H145.566L147.719 15.3913H131.683L129.53 28.4746H126.949Z" fill="black"/>
<path d="M169.938 20.3132L172.133 7.11864H174.589L171.056 28.4746H168.6L169.179 24.9292H169C168.338 26.0229 167.399 26.9359 166.185 27.6682C164.979 28.3912 163.599 28.7526 162.044 28.7526C160.692 28.7526 159.537 28.456 158.58 27.8628C157.633 27.2603 156.957 26.3798 156.552 25.2211C156.147 24.0625 156.083 22.6397 156.359 20.9527L158.663 7.11864H161.12L158.857 20.7998C158.59 22.4682 158.857 23.8122 159.657 24.8318C160.467 25.8422 161.635 26.3473 163.162 26.3473C164.119 26.3473 165.076 26.1156 166.033 25.6521C166.999 25.1887 167.836 24.512 168.545 23.6222C169.262 22.7231 169.727 21.6201 169.938 20.3132Z" fill="black"/>
<path d="M178.071 28.4746L182.763 0H185.233L183.411 11.1924H183.632C184.009 10.5528 184.511 9.89473 185.137 9.21809C185.771 8.54145 186.553 7.97603 187.483 7.52185C188.412 7.05839 189.525 6.82667 190.822 6.82667C192.561 6.82667 194.01 7.29012 195.17 8.21703C196.338 9.13467 197.152 10.4231 197.612 12.0822C198.072 13.7321 198.123 15.6555 197.764 17.8522C197.396 20.0583 196.711 21.9909 195.708 23.65C194.705 25.3092 193.472 26.6022 192.009 27.5291C190.546 28.456 188.95 28.9195 187.22 28.9195C185.932 28.9195 184.893 28.6878 184.101 28.2243C183.319 27.7609 182.721 27.1908 182.307 26.5142C181.903 25.8283 181.608 25.1609 181.424 24.512H181.12L180.458 28.4746H178.071ZM182.266 17.8105C181.99 19.5346 181.99 21.064 182.266 22.3987C182.551 23.7242 183.108 24.7669 183.936 25.527C184.773 26.2778 185.877 26.6532 187.248 26.6532C188.656 26.6532 189.912 26.2639 191.016 25.4853C192.129 24.6974 193.049 23.6361 193.776 22.3014C194.512 20.9666 195.018 19.4697 195.294 17.8105C195.561 16.1699 195.556 14.6915 195.28 13.3753C195.004 12.0591 194.447 11.0163 193.61 10.247C192.773 9.46835 191.646 9.07905 190.229 9.07905C188.849 9.07905 187.607 9.45445 186.503 10.2052C185.408 10.9468 184.497 11.9756 183.77 13.2918C183.043 14.5988 182.542 16.105 182.266 17.8105Z" fill="black"/>
</svg>
