<svg width="663" height="628" viewBox="0 0 663 628" fill="none" xmlns="http://www.w3.org/2000/svg">
<rect width="663" height="628" rx="100" fill="#F5EBE2"/>
<path d="M57 473.999L110.714 148H219.881C240.945 148 257.902 151.714 270.752 159.143C283.601 166.571 292.448 176.705 297.293 189.546C302.243 202.386 303.296 216.978 300.453 233.32C298.241 246.903 294.081 258.523 287.972 268.18C281.863 277.731 274.438 285.531 265.696 291.579C257.06 297.522 247.739 301.82 237.733 304.473L237.259 307.02C247.581 307.763 257.113 311.477 265.854 318.162C274.596 324.742 281.126 333.974 285.444 345.859C289.868 357.745 290.763 371.965 288.13 388.519C285.392 404.968 279.283 419.666 269.804 432.612C260.43 445.452 247.581 455.587 231.256 463.015C215.036 470.337 195.341 473.999 172.17 473.999H57ZM90.9664 447.257H176.594C201.555 447.257 220.934 441.685 234.731 430.543C248.529 419.4 256.902 405.392 259.851 388.519C261.852 376.104 260.693 364.855 256.375 354.774C252.057 344.586 245 336.521 235.205 330.578C225.41 324.636 213.246 321.664 198.711 321.664H111.82L90.9664 447.257ZM116.244 295.241H198.553C211.297 295.241 222.883 292.588 233.31 287.282C243.737 281.976 252.373 274.653 259.219 265.315C266.065 255.977 270.436 245.311 272.332 233.32C275.281 216.023 272.068 201.962 262.695 191.138C253.426 180.207 237.68 174.742 215.457 174.742H135.834L116.244 295.241Z" fill="black"/>
<path d="M318.622 474L372.337 148.001H401.879L377.234 297.47H560.812L585.457 148.001H615L561.285 474H531.743L556.388 324.212H372.811L348.165 474H318.622Z" fill="black"/>
</svg>
